<?xml version="1.0" standalone="no"?>
<!DOCTYPE svg PUBLIC "-//W3C//DTD SVG 20010904//EN"
 "http://www.w3.org/TR/2001/REC-SVG-20010904/DTD/svg10.dtd">
<svg version="1.0" xmlns="http://www.w3.org/2000/svg"
 width="1000.000000pt" height="1000.000000pt" viewBox="0 0 1000.000000 1000.000000"
 preserveAspectRatio="xMidYMid meet">

<g transform="translate(0.000000,1000.000000) scale(0.100000,-0.100000)"
fill="#000000" stroke="none">
<path d="M3363 9584 c-101 -37 -116 -102 -66 -299 14 -55 39 -158 57 -230 31
-124 33 -130 57 -127 13 2 19 -1 13 -5 -17 -13 -23 -40 -12 -51 6 -6 6 -12 -1
-16 -10 -6 2 -58 19 -81 4 -5 13 -36 20 -67 6 -32 18 -64 25 -72 11 -10 11
-16 2 -25 -9 -9 -8 -11 6 -6 10 4 17 2 17 -4 0 -6 -4 -11 -10 -11 -15 0 -12
-48 4 -100 40 -122 66 -223 76 -296 6 -45 29 -136 50 -203 22 -66 40 -130 40
-141 0 -16 4 -18 23 -11 22 9 24 7 23 -30 -1 -24 -6 -39 -13 -39 -7 0 -13 -5
-13 -11 0 -5 5 -7 12 -3 7 5 8 3 4 -5 -5 -7 -5 -29 -1 -48 4 -24 9 -32 15 -24
6 11 9 11 13 0 3 -8 5 8 3 34 -2 35 1 46 10 43 10 -4 11 1 3 21 -6 16 -6 30
-1 35 9 9 28 -37 23 -57 -1 -5 0 -24 4 -42 4 -23 11 -33 25 -33 18 0 18 1 0
37 -10 20 -16 43 -13 49 5 15 43 26 43 13 0 -5 -5 -9 -11 -9 -5 0 -7 -4 -4
-10 3 -5 14 -10 24 -10 12 0 17 -7 17 -22 -1 -16 4 -23 16 -22 13 1 21 -10 28
-37 6 -22 15 -37 19 -34 5 3 12 -2 15 -11 3 -8 2 -12 -4 -9 -6 3 -10 1 -10 -4
0 -6 5 -11 10 -11 6 0 10 -12 10 -26 0 -14 4 -23 9 -20 5 3 12 -1 15 -10 9
-23 8 -26 -6 -18 -9 5 -9 3 1 -9 12 -15 10 -18 -10 -26 -13 -5 -19 -10 -14
-11 6 0 3 -5 -5 -11 -11 -8 -8 -9 13 -4 17 3 26 2 23 -3 -3 -6 -23 -13 -43
-17 -21 -3 -49 -9 -62 -12 -21 -5 -22 -4 -11 17 9 17 9 25 0 34 -8 8 -9 6 -4
-9 8 -20 8 -20 -20 -1 -26 17 -30 17 -38 2 -5 -9 -13 -14 -17 -12 -4 3 -5 -8
-3 -24 2 -16 9 -28 16 -27 6 1 9 -5 7 -13 -7 -25 -1 -102 10 -123 6 -10 15
-49 20 -85 5 -37 14 -71 19 -76 6 -6 10 -19 10 -30 0 -21 30 -152 55 -241 33
-119 125 -514 125 -538 0 -14 4 -28 9 -32 6 -3 13 -27 16 -53 7 -54 26 -139
80 -357 10 -38 21 -88 26 -110 4 -22 15 -71 24 -110 9 -38 17 -80 17 -92 0
-13 4 -23 8 -23 4 0 11 -17 14 -37 14 -80 18 -93 27 -87 5 3 10 -7 10 -23 1
-15 3 -41 4 -58 3 -34 33 -159 45 -190 11 -26 21 -130 14 -137 -7 -8 -85 13
-79 22 2 3 -1 7 -8 7 -7 0 -56 10 -110 23 -86 20 -106 21 -164 12 -37 -6 -73
-18 -81 -26 -14 -14 -12 -16 12 -26 15 -5 30 -10 34 -10 4 0 15 -7 25 -14 21
-16 14 -71 -9 -62 -7 3 -14 0 -16 -5 -2 -5 -41 -14 -86 -18 -46 -5 -89 -14
-95 -20 -6 -6 -18 -11 -26 -11 -14 0 -35 -19 -115 -100 -12 -12 -16 -25 -12
-37 7 -17 8 -17 20 0 7 9 25 17 39 17 29 0 44 -15 25 -24 -10 -5 -10 -7 -1
-12 10 -4 10 -10 1 -27 -7 -12 -13 -24 -13 -27 -7 -29 -33 -65 -84 -119 -34
-34 -61 -67 -61 -73 0 -5 -9 -21 -20 -35 -11 -14 -20 -38 -20 -54 0 -15 -4
-31 -10 -34 -5 -3 -10 -33 -10 -66 0 -46 3 -59 15 -59 8 0 15 4 15 9 0 5 20
11 45 13 l45 3 0 -70 c0 -38 -7 -92 -16 -120 -25 -82 -1 -302 36 -325 6 -3 14
-28 19 -54 5 -26 18 -56 30 -67 11 -11 21 -24 21 -29 0 -14 38 -50 53 -50 13
0 15 97 2 122 -4 7 9 -5 29 -27 20 -22 34 -46 31 -53 -3 -7 -1 -11 3 -8 5 3
40 -26 78 -65 38 -38 87 -82 109 -96 22 -15 60 -43 85 -62 24 -20 40 -29 35
-21 -5 8 3 6 21 -6 16 -11 45 -27 64 -36 19 -9 51 -23 70 -31 38 -17 105 -34
188 -47 29 -5 74 -14 100 -20 26 -6 92 -14 146 -18 110 -8 131 -20 108 -64 -7
-13 -10 -33 -8 -46 8 -40 31 -97 41 -105 6 -4 5 -10 -3 -16 -11 -6 -10 -10 4
-15 16 -6 16 -8 4 -17 -13 -8 -13 -11 2 -19 14 -9 30 -55 33 -93 0 -5 8 -15
18 -22 12 -9 17 -23 15 -42 l-3 -28 -709 -2 c-390 -1 -714 -4 -720 -6 -14 -6
75 -98 139 -145 28 -20 64 -50 81 -67 18 -18 47 -39 66 -48 19 -9 43 -26 54
-38 10 -11 35 -29 55 -39 33 -17 72 -18 553 -18 285 0 522 -4 527 -9 5 -5 5
-22 1 -38 l-8 -30 -427 -3 c-370 -2 -427 -4 -427 -17 0 -8 7 -15 16 -15 8 0
22 -7 30 -15 9 -8 28 -15 44 -15 16 0 33 -7 38 -16 5 -10 28 -18 55 -21 26 -3
47 -9 47 -13 0 -4 18 -10 41 -14 23 -4 48 -13 56 -22 11 -10 31 -14 60 -13 34
2 48 -1 58 -15 10 -13 35 -20 92 -26 43 -4 94 -12 113 -17 19 -5 164 -10 321
-12 235 -2 292 0 315 12 16 8 64 17 107 20 51 4 85 11 96 21 10 9 31 16 46 16
34 0 204 53 257 81 20 10 46 19 57 19 11 0 24 6 28 14 4 8 19 16 32 18 14 1
26 9 29 16 3 9 -100 12 -492 12 l-496 0 0 24 c0 45 21 53 152 61 68 4 319 5
559 2 426 -4 436 -3 476 17 69 36 170 110 190 138 10 16 24 28 31 28 6 0 12 5
12 10 0 6 6 10 13 10 7 0 18 9 25 20 7 11 18 20 26 20 17 0 48 35 39 44 -4 4
1 4 12 0 11 -4 17 -3 12 1 -4 5 5 17 20 27 16 10 22 18 15 18 -7 0 -10 4 -7
10 4 6 -243 11 -722 12 l-728 3 0 35 c0 26 6 37 22 46 13 6 21 13 18 16 -3 3
1 25 9 49 8 24 18 74 22 111 4 37 12 73 19 78 7 6 11 21 8 33 -4 18 -3 20 7 7
10 -12 11 -12 4 5 -4 11 -8 35 -8 54 -1 32 1 34 59 52 33 10 68 19 77 19 22 0
135 48 170 72 36 24 43 23 25 -6 -17 -26 -13 -36 15 -36 11 0 18 7 18 19 0 17
5 19 33 14 23 -3 38 1 56 16 13 11 44 30 70 43 25 12 52 28 59 34 6 7 21 16
32 19 21 7 28 35 9 35 -5 0 -7 5 -4 10 3 6 22 10 41 10 26 0 45 9 78 40 50 47
146 180 146 204 0 9 7 28 16 41 19 29 35 145 23 161 -4 5 -6 20 -3 32 6 20 4
20 -19 9 -15 -7 -28 -22 -31 -33 -3 -12 -13 -24 -21 -28 -24 -9 -18 18 10 44
14 13 23 30 21 36 -3 7 4 24 15 38 l19 25 -30 58 c-17 32 -46 75 -65 96 l-33
38 -36 -20 c-41 -23 -45 -20 -15 10 l21 21 -23 24 c-36 39 -191 136 -259 164
-14 6 -37 17 -52 25 -14 8 -34 15 -43 15 -16 0 -17 7 -11 67 4 37 12 73 17 80
6 7 13 40 16 73 4 46 9 60 19 56 9 -4 14 2 15 17 3 62 3 62 29 58 14 -1 27 -7
30 -12 3 -5 36 -13 72 -18 36 -5 75 -14 86 -20 12 -6 41 -11 65 -11 31 0 47
-5 51 -15 3 -8 14 -15 25 -15 20 0 101 -84 101 -105 0 -13 -64 -35 -104 -35
-19 0 -26 -5 -26 -20 0 -14 17 -28 59 -49 55 -27 68 -29 187 -31 197 -4 187
-5 233 43 40 42 41 43 41 120 0 83 -14 101 -40 52 -31 -58 -135 -55 -200 5
-22 20 -40 35 -40 33 0 -2 -20 16 -44 39 -68 66 -96 88 -147 114 -60 32 -76
52 -74 89 2 41 38 58 105 49 32 -4 50 -11 50 -20 0 -17 -16 -15 225 -23 l200
-6 -2 -35 c0 -19 -4 -47 -8 -62 -9 -36 12 -38 52 -4 15 13 38 26 50 30 20 6
21 5 13 -31 -5 -21 -7 -39 -5 -42 9 -9 72 49 90 83 13 24 27 36 41 36 23 0 48
23 37 33 -3 4 -1 7 5 7 20 0 14 70 -9 106 -11 19 -26 34 -33 34 -7 0 -18 6
-24 12 -10 10 -8 16 7 28 15 11 22 34 29 87 8 68 7 73 -17 102 -14 17 -38 49
-54 71 -20 31 -46 50 -99 76 -40 18 -82 34 -93 34 -11 0 -29 6 -40 13 -29 20
-83 29 -89 14 -2 -7 -5 -5 -5 5 -1 10 -19 25 -47 37 -25 11 -64 36 -87 56 -45
38 -97 126 -97 162 0 12 -4 25 -10 28 -16 10 -12 -71 4 -84 7 -6 11 -21 9 -34
-7 -36 90 -136 171 -175 37 -18 80 -35 96 -39 16 -3 28 -9 25 -13 -3 -4 13
-10 34 -14 21 -3 41 -12 44 -21 4 -8 30 -21 60 -30 60 -17 87 -42 111 -99 21
-51 20 -84 -4 -134 -17 -35 -26 -42 -58 -47 -20 -3 -56 -10 -80 -15 -56 -13
-145 -13 -137 0 4 6 -6 10 -23 10 -53 0 -92 19 -92 46 0 15 6 24 15 24 20 0
19 4 -8 48 -13 20 -26 44 -29 53 -4 9 -32 31 -62 49 -31 17 -56 35 -56 40 0 5
-10 12 -22 16 -13 3 -30 12 -38 18 -17 14 -95 39 -180 59 -49 12 -55 16 -58
41 -2 15 4 48 12 73 9 26 16 60 16 77 0 17 7 40 15 50 8 11 15 29 15 40 0 12
8 53 19 91 29 105 40 154 52 220 7 33 15 65 19 70 4 6 11 33 14 60 4 28 14 74
22 103 37 135 43 160 49 200 4 24 13 56 21 70 8 15 14 34 14 42 0 8 14 71 31
140 39 163 130 535 164 675 15 61 31 133 35 160 4 28 13 68 19 90 6 25 7 51 2
70 -5 17 -10 23 -10 15 -2 -25 -33 14 -34 43 -1 13 -7 23 -13 20 -13 -5 -24
27 -24 68 0 18 6 28 20 32 11 3 20 11 20 17 0 10 -4 10 -15 0 -18 -15 -27 -10
-16 8 5 9 17 11 35 6 15 -3 24 -9 21 -12 -3 -3 3 -14 12 -25 17 -20 17 -20 -1
-13 -16 5 -17 4 -6 -9 8 -9 8 -15 2 -15 -7 0 -8 -10 -2 -31 10 -34 5 -53 -11
-44 -5 4 -9 2 -9 -4 0 -5 13 -9 29 -9 27 1 30 5 45 65 9 35 13 69 10 76 -4 7
-4 9 1 5 9 -8 65 151 65 184 0 11 4 27 9 37 11 19 51 204 51 230 0 9 -4 22 -9
30 -8 12 -12 12 -25 2 -14 -12 -16 -10 -16 7 0 11 -7 28 -16 36 -14 15 -14 16
3 16 14 0 13 3 -7 17 -27 19 -49 43 -50 56 0 5 5 5 12 1 7 -4 8 -3 4 4 -4 6
-13 9 -21 5 -20 -7 -19 6 2 29 15 17 15 20 3 29 -8 5 -20 7 -27 4 -7 -2 -10 2
-7 9 3 8 1 17 -5 21 -13 8 -15 65 -2 65 5 0 11 -9 14 -20 3 -13 10 -18 21 -14
11 4 16 0 16 -13 0 -10 9 -24 20 -31 11 -7 20 -22 20 -33 0 -12 8 -23 20 -26
15 -4 18 -11 14 -29 -4 -15 -2 -24 5 -24 6 0 11 -11 11 -24 0 -13 7 -27 16
-30 11 -4 14 -13 11 -28 -3 -11 -2 -17 2 -12 21 22 60 182 57 231 -3 42 -1 52
14 56 12 3 19 18 23 43 8 57 34 166 51 210 19 51 116 445 116 473 0 12 -11 39
-24 60 -25 39 -68 60 -158 76 -74 14 -149 -35 -163 -107 -9 -48 -35 -165 -50
-228 -7 -30 -17 -77 -20 -105 -4 -27 -11 -55 -16 -61 -5 -6 -11 -38 -13 -70
-3 -44 -1 -63 11 -76 15 -17 14 -18 -5 -18 -29 0 -45 -35 -39 -81 3 -20 1 -41
-4 -46 -5 -5 -15 -44 -21 -86 -7 -42 -16 -77 -20 -77 -11 0 -28 -73 -26 -116
0 -22 -5 -50 -12 -63 -7 -14 -10 -39 -6 -62 5 -30 3 -39 -8 -39 -21 0 -67
-186 -87 -354 -11 -89 -10 -100 5 -108 9 -5 16 -17 16 -27 0 -10 7 -32 16 -50
9 -18 14 -41 11 -52 -7 -26 2 -24 13 4 7 16 9 7 6 -35 -3 -58 10 -82 16 -30 3
27 4 27 9 -5 3 -18 2 -30 -3 -27 -4 3 -8 -13 -8 -35 0 -25 -5 -41 -12 -41 -6
0 -3 -7 8 -15 15 -12 16 -16 5 -24 -7 -4 -9 -11 -4 -14 5 -3 8 -29 8 -59 -1
-29 2 -61 7 -70 5 -11 5 -18 -2 -18 -5 0 -10 5 -10 10 0 6 -10 11 -22 11 -18
1 -19 2 -5 6 20 5 20 38 0 38 -18 0 -36 22 -29 34 4 6 16 11 26 11 10 0 22 4
25 10 3 5 0 8 -7 5 -26 -10 -40 12 -42 66 -1 35 -6 54 -14 55 -23 3 -24 4 -13
18 9 11 8 15 -5 20 -9 3 -14 12 -11 20 3 8 -2 16 -14 19 -10 3 -19 1 -19 -5 0
-5 -4 -7 -9 -3 -15 9 -34 -101 -22 -122 7 -13 10 -14 11 -4 0 8 3 11 6 8 4 -4
1 -14 -6 -22 -10 -12 -15 -13 -21 -4 -4 7 -12 -12 -19 -44 -6 -31 -8 -62 -5
-68 4 -6 -2 -19 -13 -29 -14 -13 -23 -38 -27 -77 -3 -32 -11 -69 -18 -83 -6
-14 -16 -56 -23 -95 -7 -38 -19 -104 -28 -145 -8 -41 -22 -107 -30 -147 -8
-40 -19 -80 -24 -90 -5 -10 -13 -51 -17 -90 -4 -40 -11 -71 -15 -68 -4 3 -11
-26 -15 -63 -4 -37 -11 -70 -16 -73 -5 -3 -13 -36 -17 -73 -5 -37 -14 -71 -20
-75 -6 -3 -14 -22 -17 -41 -17 -100 -18 -105 -25 -86 -3 11 -6 -2 -7 -31 0
-27 -8 -82 -17 -123 -23 -102 -54 -233 -72 -301 -8 -30 -14 -67 -14 -81 0 -15
-6 -29 -12 -31 -10 -4 -9 -6 1 -6 11 -1 11 -4 1 -16 -7 -8 -10 -21 -7 -28 3
-7 -1 -21 -8 -31 -12 -16 -17 -15 -73 13 -33 16 -62 37 -65 46 -4 8 -10 14
-14 13 -22 -6 -86 45 -176 140 -45 46 -71 53 -87 21 -9 -17 -7 -26 14 -54 38
-49 85 -96 141 -140 28 -22 55 -47 62 -55 20 -25 14 -34 -9 -14 -12 10 -18 13
-14 7 4 -8 1 -13 -8 -13 -9 0 -16 4 -16 8 0 7 -103 34 -127 34 -5 0 -17 7 -28
14 -11 8 -30 14 -42 14 -13 0 -23 4 -23 10 0 5 -6 7 -14 4 -7 -3 -16 2 -19 10
-4 9 -14 16 -24 17 -10 0 -38 11 -63 24 -25 13 -55 29 -68 34 -53 24 -233 160
-297 225 -9 9 -22 16 -29 16 -17 0 -46 -33 -46 -52 0 -16 93 -104 175 -166 28
-20 62 -47 75 -60 13 -12 27 -22 31 -22 4 0 36 -18 70 -40 35 -22 74 -44 86
-50 12 -5 27 -18 33 -30 8 -15 17 -19 33 -15 17 5 19 4 7 -4 -12 -8 -10 -11
10 -19 14 -5 32 -12 40 -15 25 -10 -51 0 -129 18 -43 9 -105 15 -150 13 -67
-3 -76 -5 -79 -23 -2 -14 7 -26 30 -39 45 -26 78 -57 72 -67 -3 -5 -38 -9 -77
-9 -95 0 -178 -11 -171 -21 3 -5 -10 -9 -28 -9 -19 0 -43 -6 -53 -14 -17 -12
-18 -18 -7 -40 6 -15 20 -26 31 -26 10 0 31 -6 46 -14 15 -8 51 -17 79 -21 28
-4 70 -13 94 -21 23 -8 64 -14 90 -15 26 0 40 -3 32 -7 -8 -4 -15 -14 -15 -22
0 -12 -19 -16 -88 -21 -48 -3 -90 -8 -93 -11 -3 -3 -6 -18 -7 -33 -2 -24 4
-30 53 -50 101 -41 125 -48 185 -55 33 -4 71 -11 85 -17 14 -6 52 -14 85 -18
33 -5 52 -10 43 -12 -10 -3 -18 -11 -18 -19 0 -14 -4 -16 -55 -18 -17 -1 -40
-11 -53 -24 -12 -12 -28 -22 -36 -22 -27 0 -28 -21 -1 -47 l26 -27 200 1 200
0 -7 -31 c-3 -17 -10 -35 -14 -41 -4 -5 -11 -39 -15 -75 -7 -61 -23 -121 -24
-91 -1 10 -4 11 -15 2 -14 -12 -44 -3 -118 35 -14 8 -34 14 -43 14 -10 0 -23
7 -29 15 -6 8 -25 16 -43 18 -17 2 -38 8 -45 14 -7 5 -35 21 -61 34 -29 14
-69 47 -100 83 -29 33 -68 75 -87 94 -36 34 -148 97 -157 88 -3 -2 2 -19 11
-37 24 -48 -2 -59 -88 -39 -66 15 -74 31 -102 210 -16 103 -18 118 -27 140 -3
8 -8 35 -10 59 -3 24 -10 47 -16 50 -6 4 -13 38 -16 76 -3 39 -12 99 -20 135
-8 36 -27 124 -41 195 -15 72 -33 162 -41 200 -7 39 -20 104 -28 145 -7 41
-18 89 -24 105 -5 17 -12 53 -15 82 -4 28 -13 68 -21 87 -8 19 -15 48 -15 64
0 15 -5 33 -11 39 -5 5 -14 37 -19 69 -5 32 -26 138 -46 234 -20 96 -40 196
-44 222 -5 26 -16 74 -24 107 -8 32 -18 83 -22 112 -4 30 -10 59 -15 64 -4 6
-11 39 -15 75 -3 36 -14 79 -22 95 -9 17 -17 58 -18 93 -1 34 -6 68 -12 75 -5
7 -15 36 -22 65 -7 30 -19 56 -27 59 -12 5 -14 16 -9 50 4 34 3 43 -9 43 -8 0
-15 5 -15 10 0 6 5 10 11 10 7 0 9 10 4 28 -20 79 -47 214 -51 267 -3 33 -11
69 -17 80 -6 11 -13 42 -15 70 -1 27 -12 69 -22 93 -19 43 -33 105 -49 228 -5
34 -13 70 -19 80 -5 10 -13 42 -17 69 -10 68 -32 172 -38 182 -3 5 -13 51 -22
103 -47 273 -105 505 -135 535 -26 26 -137 31 -197 9z m144 -926 c-3 -8 -6 -5
-6 6 -1 11 2 17 5 13 3 -3 4 -12 1 -19z m128 11 c2 -3 -11 -5 -30 -6 -19 -1
-35 2 -35 6 0 8 57 7 65 0z m5 -34 c-7 -9 -15 -13 -17 -11 -7 7 7 26 19 26 6
0 6 -6 -2 -15z m50 -29 c-16 -16 -11 -24 13 -20 20 4 21 4 2 -5 -14 -7 -15
-10 -5 -10 8 -1 21 -11 29 -23 l14 -22 -29 19 c-16 10 -34 26 -41 34 -9 13
-14 14 -25 3 -10 -10 -10 -17 0 -32 10 -16 9 -18 -3 -14 -9 4 -15 19 -15 36 0
16 4 27 9 24 5 -3 11 0 14 7 3 7 14 13 26 13 14 0 17 -4 11 -10z m2770 4 c0
-5 -4 -10 -10 -10 -5 0 -10 5 -10 10 0 6 5 10 10 10 6 0 10 -4 10 -10z m-2842
-12 c-2 -6 -10 -14 -16 -16 -7 -2 -10 2 -6 12 7 18 28 22 22 4z m-68 -7 c0 -5
-9 -7 -20 -4 -11 3 -20 7 -20 9 0 2 9 4 20 4 11 0 20 -4 20 -9z m249 -115 c1
-45 -11 -23 -15 26 -2 31 0 37 6 23 5 -11 9 -33 9 -49z m-82 39 c0 -8 -4 -12
-9 -9 -4 3 -8 9 -8 15 0 5 4 9 8 9 5 0 9 -7 9 -15z m38 -6 c11 -17 -1 -21 -15
-4 -8 9 -8 15 -2 15 6 0 14 -5 17 -11z m2585 -52 c0 -5 6 -7 14 -4 23 9 27 -5
9 -32 -16 -25 -16 -25 1 -11 17 13 18 12 15 -5 -3 -11 -13 -21 -23 -23 -21 -4
-38 16 -31 37 4 9 0 11 -10 7 -16 -6 -19 3 -10 27 6 15 35 19 35 4z m-2680
-81 c0 -3 -4 -8 -10 -11 -5 -3 -10 -1 -10 4 0 6 5 11 10 11 6 0 10 -2 10 -4z
m70 -171 c33 -19 21 -19 -21 0 -19 8 -27 14 -19 14 8 0 26 -6 40 -14z m93
-177 c15 1 27 -3 27 -9 0 -6 -6 -9 -14 -6 -10 4 -14 0 -13 -14 1 -10 5 -19 9
-19 4 0 8 -5 8 -11 0 -12 -43 -1 -48 12 -2 5 -8 7 -13 3 -5 -3 -9 3 -9 13 0
11 -6 25 -12 32 -11 11 -8 12 12 5 14 -4 37 -7 53 -6z m-82 -55 c13 -16 12
-17 -3 -4 -10 7 -18 15 -18 17 0 8 8 3 21 -13z m135 -39 c3 -13 9 -24 13 -24
4 0 12 -13 18 -29 10 -27 9 -29 -13 -27 -13 0 -26 7 -29 14 -2 6 -10 12 -16
12 -8 0 -7 -5 2 -17 7 -10 1 -7 -13 6 -25 22 -30 50 -7 35 5 -3 6 -10 3 -16
-4 -7 -2 -8 4 -4 16 9 4 33 -19 39 -33 9 -22 32 16 34 29 1 36 -2 41 -23z
m2365 -77 c-10 -9 -11 -8 -5 6 3 10 9 15 12 12 3 -3 0 -11 -7 -18z m23 -43 c3
-8 2 -12 -4 -9 -6 3 -10 10 -10 16 0 14 7 11 14 -7z m-2474 -19 c-13 -16 -30
-11 -30 8 0 7 4 6 10 -3 8 -12 10 -12 16 3 3 10 9 16 12 13 3 -3 -1 -12 -8
-21z m2410 -175 c0 -5 -10 -15 -22 -21 -23 -12 -23 -12 -4 10 21 23 26 26 26
11z m-5 -130 c3 -5 2 -10 -4 -10 -5 0 -18 -3 -28 -7 -16 -6 -16 -5 -4 10 15
19 27 22 36 7z m12 -54 c9 -9 -38 -6 -62 4 -15 6 -10 8 18 6 21 -2 40 -6 44
-10z m-682 -1916 c4 -6 -5 -10 -19 -10 -14 0 -26 5 -26 10 0 6 9 10 19 10 11
0 23 -4 26 -10z m75 -36 c0 -2 -9 -4 -20 -4 -11 0 -20 4 -20 9 0 5 9 7 20 4
11 -3 20 -7 20 -9z m40 -4 c12 -8 11 -10 -7 -10 -13 0 -23 5 -23 10 0 13 11
13 30 0z m47 -26 c-3 -3 -12 -4 -19 -1 -8 3 -5 6 6 6 11 1 17 -2 13 -5z m48
-22 c-3 -3 -11 0 -18 7 -9 10 -8 11 6 5 10 -3 15 -9 12 -12z m91 -12 c20 0 31
-5 31 -14 0 -11 -5 -12 -18 -5 -10 5 -34 9 -53 9 -20 0 -36 5 -36 11 0 7 9 9
23 5 12 -3 36 -6 53 -6z m89 -33 c13 -3 9 -5 -12 -6 -31 -1 -41 8 -26 22 4 4
9 3 12 -2 3 -5 15 -11 26 -14z m203 -183 c7 -8 23 -14 35 -14 30 -1 59 -25 55
-46 -5 -27 -33 -40 -60 -27 -13 7 -33 15 -46 18 -21 6 -82 63 -82 77 0 13 84
6 98 -8z m-1891 -260 c-9 -10 -77 -11 -77 -1 0 4 19 7 42 7 23 0 38 -3 35 -6z
m53 -4 c0 -5 -9 -10 -21 -10 -11 0 -17 5 -14 10 3 6 13 10 21 10 8 0 14 -4 14
-10z m-82 -28 c2 -8 -11 -12 -40 -12 -23 -1 -61 -9 -83 -20 -22 -11 -48 -19
-57 -20 -29 0 -120 -60 -181 -119 -55 -52 -149 -178 -164 -219 -4 -9 -10 -20
-15 -23 -5 -3 -11 -23 -15 -45 -3 -21 -12 -48 -19 -58 -11 -16 -12 -12 -8 33
3 33 12 59 24 71 11 11 20 25 20 30 0 6 11 28 25 49 13 22 27 50 30 64 7 28
176 207 196 207 18 0 119 51 119 61 0 17 162 19 168 1z m237 -386 c6 -6 16
-45 23 -86 7 -41 17 -76 22 -78 6 -2 10 -24 10 -48 0 -24 4 -44 8 -44 4 0 9
-11 10 -24 1 -13 9 -50 18 -82 25 -94 55 -215 63 -262 4 -23 9 -45 10 -47 6
-15 10 -34 16 -67 3 -21 12 -44 20 -52 8 -8 15 -28 15 -45 l0 -30 -66 5 c-58
3 -69 8 -95 35 -16 17 -29 35 -29 39 0 16 -75 80 -93 80 -9 0 -16 3 -15 8 3 7
-5 12 -22 12 -16 0 -12 -46 6 -60 17 -15 15 -61 -2 -67 -7 -2 -18 2 -25 10
-13 13 -26 20 -106 63 -18 10 -33 26 -33 35 0 10 -4 20 -10 24 -5 3 -7 12 -3
20 3 8 0 15 -7 15 -6 0 -8 5 -5 10 4 6 2 16 -3 23 -6 7 -13 29 -17 49 -4 21
-11 35 -16 33 -4 -3 -12 9 -17 26 -11 45 -25 46 -41 4 -29 -80 -70 -11 -78
131 -4 62 -2 93 6 98 6 4 11 22 11 40 0 19 7 39 15 46 8 7 15 19 15 26 0 24
69 92 116 114 24 12 46 26 50 31 3 5 20 9 37 9 18 1 57 7 87 14 57 14 107 11
125 -8z m249 -61 c11 -8 28 -15 38 -15 10 0 35 -9 55 -20 21 -11 45 -20 55
-20 9 0 19 -4 23 -9 3 -5 19 -13 37 -16 17 -4 64 -22 103 -41 40 -19 78 -34
84 -34 6 0 11 -4 11 -8 0 -5 18 -14 40 -21 22 -6 40 -16 40 -21 0 -6 10 -10
23 -10 12 0 30 -9 40 -20 9 -11 26 -20 37 -20 11 0 20 -5 20 -10 0 -6 10 -14
23 -19 19 -8 22 -14 19 -60 -2 -28 -8 -51 -14 -51 -5 0 -6 5 -3 10 3 6 2 10
-2 10 -8 0 -20 -51 -44 -190 -5 -30 -14 -68 -21 -83 -6 -16 -10 -53 -9 -83 2
-54 1 -54 -29 -54 -18 0 -33 6 -36 15 -4 8 -17 15 -31 15 -16 0 -27 7 -30 20
-3 11 -14 20 -25 20 -11 0 -29 5 -41 12 -12 6 -39 15 -59 18 -51 10 -50 -8 2
-53 42 -36 49 -54 25 -63 -8 -3 -17 -15 -21 -26 -5 -18 -7 -18 -23 -4 -10 9
-24 16 -32 17 -8 0 -6 4 6 9 14 6 -2 9 -50 9 -92 2 -99 7 -91 66 5 30 3 51 -4
60 -7 8 -9 19 -5 25 3 5 -1 13 -9 16 -11 4 -16 19 -16 49 0 24 -5 47 -11 51
-6 3 -9 15 -6 25 3 10 1 19 -5 21 -5 2 -12 38 -15 80 -3 44 -10 75 -15 72 -5
-4 -8 2 -7 12 2 11 0 24 -3 30 -4 5 -8 35 -9 65 -1 30 -8 68 -15 84 -17 40
-29 126 -15 105 12 -17 14 -10 5 14 -3 9 -12 16 -20 16 -8 0 -14 5 -14 10 0
14 22 12 44 -5z m-1083 -156 c-5 -26 -9 -34 -10 -19 -1 27 9 73 15 67 2 -2 0
-23 -5 -48z m2369 -178 c0 -9 -93 -91 -104 -91 -3 0 -6 11 -6 23 0 16 9 28 27
36 25 11 25 11 13 -6 -8 -10 1 -3 19 15 33 32 51 40 51 23z m-474 -138 c-11
-11 -17 4 -9 23 7 18 8 18 11 1 2 -10 1 -21 -2 -24z m-21 -40 c0 -9 6 -18 14
-21 9 -3 11 1 6 17 -5 17 -2 21 14 21 20 0 21 -6 21 -91 0 -77 -2 -90 -15 -85
-12 4 -15 -3 -15 -31 0 -24 -7 -42 -23 -57 -23 -22 -70 -46 -88 -46 -14 0 -1
60 17 78 8 7 14 22 14 33 0 11 5 30 12 42 6 12 13 40 15 62 5 66 14 107 21
100 4 -3 7 -14 7 -22z m555 -153 c-14 -11 -30 -20 -36 -20 -15 0 -68 -61 -83
-94 -10 -24 -14 -27 -22 -15 -10 16 -11 54 -3 85 5 19 67 45 117 49 10 1 23 7
29 13 7 7 14 9 17 6 3 -3 -5 -14 -19 -24z m-1380 -166 c0 -8 -5 -12 -10 -9 -6
4 -8 11 -5 16 9 14 15 11 15 -7z m365 -34 c4 -6 -6 -10 -22 -9 -25 0 -26 1 -8
9 11 5 21 9 22 9 1 1 5 -3 8 -9z m-62 -7 c-7 -2 -19 -2 -25 0 -7 3 -2 5 12 5
14 0 19 -2 13 -5z m849 -125 c-20 -20 -14 -38 12 -38 14 0 28 -5 32 -12 5 -8
0 -9 -17 -5 -13 4 -37 7 -53 7 l-30 0 29 30 c16 17 31 30 34 30 3 0 0 -5 -7
-12z m-70 -80 c-7 -7 -12 -8 -12 -2 0 14 12 26 19 19 2 -3 -1 -11 -7 -17z
m-632 -255 c0 -30 -13 -41 -61 -54 -40 -11 -51 -10 -87 7 -72 33 -51 49 73 57
28 2 56 4 63 5 6 1 12 -6 12 -15z m-77 -96 c25 -11 27 -16 26 -62 -1 -27 -6
-56 -11 -62 -6 -7 -8 -19 -5 -27 4 -10 -2 -13 -19 -12 -24 1 -29 14 -24 59 1
10 -4 24 -10 32 -6 7 -13 26 -15 42 -1 15 -8 27 -14 26 -6 -2 -11 3 -11 11 0
16 36 13 83 -7z m-3 -187 c0 -5 -5 -10 -11 -10 -5 0 -7 5 -4 10 3 6 8 10 11
10 2 0 4 -4 4 -10z m0 -59 c12 -24 13 -78 2 -85 -16 -9 -54 35 -46 53 4 9 6
24 6 34 -1 23 25 22 38 -2z"/>
<path d="M5870 4070 c0 -5 5 -10 10 -10 6 0 10 5 10 10 0 6 -4 10 -10 10 -5 0
-10 -4 -10 -10z"/>
<path d="M5020 3010 c-13 -8 -12 -10 3 -10 9 0 17 5 17 10 0 12 -1 12 -20 0z"/>
<path d="M6168 7865 c-3 -6 -9 -26 -13 -45 -5 -29 -2 -37 15 -48 26 -16 46 -6
29 14 -10 12 -8 18 7 29 18 14 18 15 -3 21 -12 3 -23 13 -25 23 -2 9 -6 12
-10 6z"/>
<path d="M6422 7770 c0 -14 2 -19 5 -12 2 6 2 18 0 25 -3 6 -5 1 -5 -13z"/>
<path d="M6153 7755 c4 -9 7 -19 7 -21 0 -2 7 -4 15 -4 22 0 18 18 -7 31 -18
10 -20 9 -15 -6z"/>
<path d="M3741 7724 c0 -11 3 -14 6 -6 3 7 2 16 -1 19 -3 4 -6 -2 -5 -13z"/>
<path d="M6210 7704 c0 -8 5 -12 10 -9 6 4 8 11 5 16 -9 14 -15 11 -15 -7z"/>
<path d="M3745 7680 c-3 -5 -1 -10 4 -10 6 0 11 5 11 10 0 6 -2 10 -4 10 -3 0
-8 -4 -11 -10z"/>
<path d="M3865 7680 c-3 -5 -1 -10 4 -10 6 0 11 5 11 10 0 6 -2 10 -4 10 -3 0
-8 -4 -11 -10z"/>
<path d="M6225 7670 c-3 -5 -2 -10 4 -10 5 0 13 5 16 10 3 6 2 10 -4 10 -5 0
-13 -4 -16 -10z"/>
<path d="M6261 7654 c0 -11 3 -14 6 -6 3 7 2 16 -1 19 -3 4 -6 -2 -5 -13z"/>
<path d="M3717 7620 c7 -52 21 -97 22 -67 1 9 6 17 12 17 6 0 9 7 5 15 -4 10
1 15 16 15 17 0 18 3 8 15 -6 8 -9 18 -6 24 10 16 -23 21 -38 6 -13 -13 -15
-13 -19 3 -3 9 -3 -3 0 -28z m40 8 c-3 -8 -6 -5 -6 6 -1 11 2 17 5 13 3 -3 4
-12 1 -19z"/>
<path d="M3815 7638 c10 -31 21 -42 35 -33 9 6 8 10 -4 17 -14 8 -15 13 -5 24
9 11 7 14 -10 14 -19 0 -21 -4 -16 -22z"/>
<path d="M3880 7475 c0 -8 4 -15 10 -15 5 0 7 7 4 15 -4 8 -8 15 -10 15 -2 0
-4 -7 -4 -15z"/>
<path d="M2941 3644 c0 -11 3 -14 6 -6 3 7 2 16 -1 19 -3 4 -6 -2 -5 -13z"/>
<path d="M7113 3654 c-7 -3 -9 -12 -6 -20 3 -7 9 -11 14 -8 5 3 6 -1 3 -9 -3
-8 2 -19 10 -26 12 -10 16 -8 21 8 3 11 0 29 -7 40 -13 22 -15 23 -35 15z"/>
<path d="M2968 3643 c7 -3 16 -2 19 1 4 3 -2 6 -13 5 -11 0 -14 -3 -6 -6z"/>
<path d="M6253 3643 c9 -2 25 -2 35 0 9 3 1 5 -18 5 -19 0 -27 -2 -17 -5z"/>
<path d="M6365 3633 c11 -11 19 -13 24 -5 3 6 27 12 51 15 35 3 30 4 -23 5
-64 2 -67 1 -52 -15z"/>
<path d="M2916 3631 c-4 -7 -5 -15 -2 -18 9 -9 19 4 14 18 -4 11 -6 11 -12 0z"/>
<path d="M6423 3623 c9 -2 25 -2 35 0 9 3 1 5 -18 5 -19 0 -27 -2 -17 -5z"/>
<path d="M6493 3623 c9 -2 23 -2 30 0 6 3 -1 5 -18 5 -16 0 -22 -2 -12 -5z"/>
<path d="M6573 3623 c9 -2 25 -2 35 0 9 3 1 5 -18 5 -19 0 -27 -2 -17 -5z"/>
<path d="M6658 3623 c12 -2 32 -2 45 0 12 2 2 4 -23 4 -25 0 -35 -2 -22 -4z"/>
<path d="M7033 3345 c0 -11 4 -12 14 -4 7 6 13 13 13 15 0 2 -6 4 -13 4 -8 0
-14 -7 -14 -15z"/>
<path d="M3160 3075 c0 -19 17 -28 23 -13 2 7 8 1 12 -14 6 -25 35 -41 35 -20
0 4 9 8 20 8 11 0 19 -5 17 -11 -4 -9 21 -34 34 -35 4 0 10 12 13 26 5 18 10
23 19 16 7 -5 19 -10 27 -10 8 0 32 -5 53 -10 23 -6 39 -6 43 0 3 5 11 4 20
-3 11 -9 17 -9 29 1 10 9 19 9 28 2 6 -5 54 -10 106 -10 68 0 96 -3 102 -13 7
-12 9 -11 9 1 0 12 2 13 9 1 6 -9 10 -10 12 -2 3 8 71 13 219 17 318 7 312 6
320 29 6 17 7 17 13 -5 5 -19 9 -21 21 -11 10 8 16 9 21 1 11 -18 28 -11 22
10 -6 24 5 26 23 5 10 -12 16 -13 27 -4 10 9 19 9 38 -1 14 -7 28 -10 32 -7 3
4 0 7 -9 7 -8 0 -15 7 -15 15 0 8 7 15 14 15 8 0 11 -4 8 -10 -3 -5 1 -10 9
-10 19 0 21 26 4 33 -7 3 -3 6 9 6 13 1 22 -2 22 -6 -3 -19 2 -33 11 -33 5 0
7 7 4 15 -4 8 -1 15 5 15 7 0 14 -7 17 -15 9 -21 24 -19 24 4 0 15 -10 20 -50
26 -28 4 -56 3 -63 -2 -17 -12 -74 -16 -80 -6 -3 5 -285 10 -631 11 -534 1
-626 -1 -626 -13z m997 -31 c-3 -3 -12 -4 -19 -1 -8 3 -5 6 6 6 11 1 17 -2 13
-5z m73 -4 c-20 -13 -40 -13 -40 0 0 6 12 10 28 10 21 0 24 -2 12 -10z m-277
-27 c-7 -2 -19 -2 -25 0 -7 3 -2 5 12 5 14 0 19 -2 13 -5z"/>
<path d="M5373 3082 c-40 -2 -73 -6 -74 -10 0 -4 -2 -15 -4 -24 -2 -11 5 -20
18 -24 36 -11 106 -13 112 -3 4 5 23 7 43 4 20 -2 76 -7 125 -11 69 -5 87 -9
87 -21 0 -13 10 -15 51 -11 29 3 60 3 70 1 30 -8 22 -26 -8 -20 -28 5 -28 5
-7 -12 21 -17 21 -17 -13 -17 -23 0 -32 4 -29 13 3 7 -1 13 -9 13 -8 0 -15 -6
-15 -12 0 -10 -29 -13 -108 -14 -59 0 -120 -4 -137 -9 l-30 -8 25 -7 c37 -12
90 -11 90 0 0 6 9 10 20 10 31 0 24 -14 -15 -33 -40 -19 -59 -22 -50 -8 3 6
-11 13 -30 17 -28 5 -39 3 -49 -11 -7 -10 -21 -15 -32 -13 -16 4 -15 6 9 16
30 13 35 27 11 36 -25 10 -31 7 -37 -14 -7 -28 -27 -25 -27 5 0 14 5 25 10 25
10 0 14 43 4 52 -8 8 -44 -3 -44 -13 0 -5 7 -9 15 -9 8 0 15 -4 15 -10 0 -5
-7 -10 -15 -10 -8 0 -19 -9 -25 -20 -9 -17 -8 -20 10 -20 11 0 20 -5 20 -10 0
-6 -11 -8 -25 -6 -14 3 -25 0 -25 -6 0 -5 6 -8 13 -5 6 2 21 1 32 -4 15 -6 11
-8 -18 -8 -45 -1 -79 -27 -56 -42 8 -5 31 -9 52 -9 20 0 37 -4 37 -10 0 -5 5
-10 11 -10 5 0 8 4 5 9 -8 13 94 22 117 10 12 -7 22 -8 26 -1 4 5 49 7 115 3
61 -3 182 -5 270 -4 89 1 173 2 189 3 15 0 27 4 27 10 0 5 9 10 20 10 11 0 20
-4 20 -10 0 -16 40 -12 46 5 4 9 19 15 35 15 19 0 29 -5 29 -15 0 -8 5 -15 10
-15 6 0 10 7 10 15 0 18 70 21 87 4 12 -12 103 -18 103 -7 0 3 18 4 40 1 38
-5 40 -4 40 21 0 28 -3 29 -105 29 -41 0 -43 1 -12 4 25 3 37 9 34 16 -3 8 9
11 42 9 32 -2 41 0 31 7 -22 14 -470 26 -470 13 0 -6 19 -13 43 -15 23 -2 6
-4 -40 -5 -50 -1 -83 -6 -85 -13 -3 -8 -13 -9 -28 -4 l-25 8 29 10 c25 8 27
13 23 41 -3 17 -3 25 0 19 8 -20 199 -18 207 2 6 16 32 21 38 6 2 -4 33 -12
70 -15 60 -7 67 -6 62 8 -4 11 -1 16 10 16 9 0 16 -4 16 -10 0 -16 40 -12 46
5 4 8 12 15 20 15 8 0 14 -7 14 -15 0 -8 4 -15 9 -15 5 0 11 7 15 15 3 8 18
15 33 15 19 0 24 3 15 9 -8 5 8 6 37 3 31 -3 51 -1 51 5 0 6 24 13 53 15 28 3
61 9 71 13 14 6 17 5 11 -4 -6 -10 -3 -11 14 -2 15 8 21 9 21 1 0 -6 4 -8 10
-5 6 3 7 -1 3 -10 -4 -12 -8 -13 -13 -5 -4 7 -10 0 -13 -18 -4 -18 -14 -32
-24 -35 -10 -2 -1 -4 20 -3 25 1 42 8 49 19 5 10 13 15 19 12 5 -4 9 1 9 10 0
9 5 26 12 38 7 12 13 27 14 32 1 9 -1321 15 -1523 7z m534 -88 c-3 -3 -12 -4
-19 -1 -8 3 -5 6 6 6 11 1 17 -2 13 -5z m41 -34 c14 -1 14 -2 -2 -12 -15 -8
-21 -8 -24 0 -2 6 -9 9 -15 7 -48 -14 -65 -14 -71 1 -5 14 -1 16 33 10 26 -4
42 -2 47 6 6 9 9 9 12 0 2 -7 11 -12 20 -12z m-68 -45 c0 -20 10 -19 26 3 12
15 13 15 14 1 0 -26 -22 -39 -43 -25 -19 14 -23 36 -7 36 6 0 10 -7 10 -15z
m-46 -11 c22 -21 20 -25 -8 -14 -13 5 -43 7 -65 5 -23 -2 -44 1 -47 7 -5 8 4
9 29 5 20 -3 39 -1 42 4 9 14 32 11 49 -7z m-139 -4 c-3 -5 -17 -10 -30 -10
-13 0 -27 5 -30 10 -4 6 8 10 30 10 22 0 34 -4 30 -10z m528 -17 c-13 -2 -33
-2 -45 0 -13 2 -3 4 22 4 25 0 35 -2 23 -4z m-546 -9 c-3 -3 -12 -4 -19 -1 -8
3 -5 6 6 6 11 1 17 -2 13 -5z m-232 -24 c-3 -5 -24 -10 -46 -10 -21 0 -39 5
-39 10 0 6 21 10 46 10 27 0 43 -4 39 -10z m-125 -10 c-20 -13 -40 -13 -40 0
0 6 12 10 28 10 21 0 24 -2 12 -10z"/>
<path d="M4735 3070 c-3 -5 -1 -10 4 -10 6 0 11 5 11 10 0 6 -2 10 -4 10 -3 0
-8 -4 -11 -10z"/>
<path d="M4695 3060 c4 -6 11 -8 16 -5 14 9 11 15 -7 15 -8 0 -12 -5 -9 -10z"/>
<path d="M3227 3013 c-4 -6 0 -14 8 -17 13 -5 14 -10 5 -28 -10 -21 -10 -21 3
-5 8 9 20 17 26 17 7 0 9 5 6 11 -4 6 -9 8 -13 5 -3 -3 -10 2 -17 11 -8 10
-14 12 -18 6z"/>
<path d="M3210 2980 c0 -5 5 -10 11 -10 5 0 7 5 4 10 -3 6 -8 10 -11 10 -2 0
-4 -4 -4 -10z"/>
<path d="M5400 2980 c0 -5 5 -10 11 -10 5 0 7 5 4 10 -3 6 -8 10 -11 10 -2 0
-4 -4 -4 -10z"/>
<path d="M5595 2970 c-3 -5 -1 -10 4 -10 6 0 11 5 11 10 0 6 -2 10 -4 10 -3 0
-8 -4 -11 -10z"/>
<path d="M5640 2971 c0 -5 7 -12 16 -15 27 -10 36 -7 20 9 -16 17 -36 20 -36
6z"/>
<path d="M3270 2960 c0 -5 5 -10 11 -10 5 0 7 5 4 10 -3 6 -8 10 -11 10 -2 0
-4 -4 -4 -10z"/>
<path d="M5458 2963 c12 -2 32 -2 45 0 12 2 2 4 -23 4 -25 0 -35 -2 -22 -4z"/>
<path d="M6774 2952 c-16 -2 -20 -8 -17 -23 4 -13 0 -19 -12 -19 -14 0 -16 -6
-11 -32 4 -21 3 -28 -3 -19 -13 20 -41 6 -41 -21 1 -21 2 -22 14 -5 15 19 31
23 20 5 -6 -10 -5 -10 8 -1 8 7 18 10 21 7 4 -4 4 3 2 15 -3 15 4 30 22 45 30
26 28 52 -3 48z"/>
<path d="M3350 2929 c0 -5 5 -7 10 -4 6 3 10 8 10 11 0 2 -4 4 -10 4 -5 0 -10
-5 -10 -11z"/>
<path d="M3967 2913 c-22 -6 -12 -23 14 -23 10 0 19 7 19 15 0 15 -2 16 -33 8z"/>
<path d="M4028 2903 c6 -2 18 -2 25 0 6 3 1 5 -13 5 -14 0 -19 -2 -12 -5z"/>
<path d="M5262 2890 c0 -14 2 -19 5 -12 2 6 2 18 0 25 -3 6 -5 1 -5 -13z"/>
<path d="M6700 2900 c0 -5 5 -10 11 -10 5 0 7 5 4 10 -3 6 -8 10 -11 10 -2 0
-4 -4 -4 -10z"/>
<path d="M3790 2876 c6 -6 18 -5 32 1 21 10 21 10 -9 9 -19 -1 -28 -5 -23 -10z"/>
<path d="M3883 2883 c9 -2 23 -2 30 0 6 3 -1 5 -18 5 -16 0 -22 -2 -12 -5z"/>
<path d="M5228 2883 c7 -3 16 -2 19 1 4 3 -2 6 -13 5 -11 0 -14 -3 -6 -6z"/>
<path d="M4225 2870 c4 -7 -57 -9 -190 -5 -132 4 -194 2 -190 -5 3 -5 23 -11
43 -11 l37 -1 -30 -9 c-22 -6 -18 -7 15 -2 70 9 179 9 173 -1 -7 -11 146 3
167 15 13 7 13 9 0 9 -10 1 -9 4 5 10 18 8 17 9 -8 9 -17 1 -26 -3 -22 -9z"/>
<path d="M4290 2850 c0 -5 7 -10 15 -10 8 0 15 5 15 10 0 6 -7 10 -15 10 -8 0
-15 -4 -15 -10z"/>
<path d="M4360 2851 c0 -6 5 -13 10 -16 6 -3 10 1 10 9 0 9 -4 16 -10 16 -5 0
-10 -4 -10 -9z"/>
<path d="M4440 2841 c0 -17 17 -21 51 -14 33 7 33 7 9 14 -37 10 -60 10 -60 0z"/>
<path d="M5773 2803 c9 -2 25 -2 35 0 9 3 1 5 -18 5 -19 0 -27 -2 -17 -5z"/>
<path d="M5160 1724 c-82 -30 -142 -81 -164 -139 -26 -67 -19 -170 14 -219 51
-76 164 -124 257 -110 63 9 142 61 175 114 96 157 -10 346 -200 356 -37 2 -74
1 -82 -2z m117 -95 c93 -35 123 -164 54 -238 -91 -97 -248 -34 -245 99 1 64
27 108 77 131 48 21 74 23 114 8z"/>
<path d="M6190 1721 c-75 -23 -138 -81 -160 -146 -7 -21 -10 -67 -8 -105 5
-91 39 -142 123 -185 97 -50 202 -39 290 30 19 15 19 16 -12 46 l-31 32 -56
-28 c-56 -28 -76 -28 -136 -4 -32 12 -69 67 -77 111 -9 58 27 124 79 148 57
26 86 25 143 -6 l48 -25 31 31 31 31 -30 25 c-57 46 -164 66 -235 45z"/>
<path d="M3080 1490 l0 -230 50 0 49 0 3 132 3 132 65 -108 c84 -140 90 -140
174 2 33 56 64 102 68 102 5 0 8 -59 8 -131 l0 -130 48 3 47 3 0 225 0 225
-45 0 -44 0 -78 -130 c-43 -71 -82 -131 -87 -133 -5 -2 -40 48 -77 110 -98
163 -92 157 -141 158 l-43 0 0 -230z"/>
<path d="M3841 1703 c-22 -44 -191 -426 -191 -434 0 -6 23 -9 51 -7 51 3 52 4
69 48 l18 45 109 3 109 3 21 -51 21 -50 51 0 c28 0 51 4 51 10 0 11 -46 119
-135 317 l-60 133 -52 0 c-40 0 -55 -4 -62 -17z m98 -177 c17 -41 31 -77 31
-80 0 -8 -125 -8 -132 0 -8 7 52 154 62 154 5 0 22 -33 39 -74z"/>
<path d="M4210 1491 l0 -231 164 0 164 0 5 33 c8 55 5 57 -114 57 l-109 0 -1
170 c-1 94 -2 176 -3 183 -1 7 -21 13 -53 15 l-53 3 0 -230z"/>
<path d="M4610 1490 l0 -230 168 2 167 3 0 40 0 40 -112 3 -113 3 -1 37 c-1
20 0 91 1 157 1 66 -1 132 -5 148 -7 25 -11 27 -56 27 l-49 0 0 -230z"/>
<path d="M5560 1490 l0 -231 52 3 53 3 1 50 c1 28 2 56 3 63 0 7 17 12 46 12
44 0 47 -2 93 -65 l47 -65 52 0 c29 0 53 3 53 6 0 4 -21 36 -46 71 l-47 65 33
31 c37 34 60 83 60 124 -1 48 -35 108 -76 134 -36 22 -52 24 -181 27 l-143 4
0 -232z m268 115 c12 -15 22 -37 22 -50 0 -13 -10 -36 -22 -50 -20 -23 -31
-26 -86 -27 -34 0 -66 2 -70 6 -9 10 -9 139 0 146 4 3 36 5 70 3 53 -2 66 -7
86 -28z"/>
<path d="M6663 1708 c-14 -22 -193 -430 -193 -440 0 -5 23 -8 51 -6 51 3 52 4
69 48 l18 45 109 3 110 3 21 -51 21 -50 50 0 c30 0 51 4 51 11 0 6 -44 110
-97 230 l-97 219 -52 0 c-31 0 -56 -5 -61 -12z m67 -110 c0 -2 14 -36 30 -77
17 -40 30 -75 30 -77 0 -2 -31 -4 -70 -4 -38 0 -70 2 -70 4 0 2 13 37 30 77
16 41 30 75 30 77 0 1 5 2 10 2 6 0 10 -1 10 -2z"/>
<path d="M4745 918 c-41 -38 -43 -48 -12 -48 27 0 67 26 67 43 0 8 -3 7 -9 -2
-5 -7 -11 -9 -13 -5 -3 5 -3 2 -1 -6 2 -8 1 -11 -3 -7 -4 4 -14 1 -23 -6 -12
-10 -12 -7 2 12 9 14 29 30 44 37 26 11 26 12 6 13 -12 1 -38 -14 -58 -31z"/>
<path d="M3543 794 c-9 -14 -13 -27 -9 -31 3 -3 0 -13 -6 -22 -11 -13 5 -3 42
28 3 2 -3 1 -12 -2 -21 -8 -24 6 -4 22 11 9 15 8 20 -6 6 -15 8 -15 16 -3 5 8
15 15 21 15 7 0 14 5 16 12 3 7 -9 11 -32 11 -27 0 -40 -6 -52 -24z"/>
<path d="M3972 805 c-57 -25 -82 -61 -82 -120 0 -35 5 -57 15 -65 8 -7 15 -9
15 -5 0 4 8 -2 18 -13 21 -24 58 -37 67 -22 6 9 -7 14 -27 11 -5 0 -7 2 -7 7
1 4 1 14 0 22 -1 13 -3 13 -10 1 -7 -12 -13 -12 -24 -3 -7 7 -16 9 -19 6 -3
-2 -8 2 -11 11 -4 8 -3 15 1 15 4 0 7 13 7 29 0 16 -3 27 -7 24 -5 -2 -8 1 -8
7 0 17 40 70 52 70 6 0 4 -8 -6 -19 -15 -17 -15 -19 1 -32 16 -13 17 -12 5 3
-11 14 -10 18 7 27 16 9 22 8 30 -6 14 -24 14 -7 0 20 -9 18 -9 20 2 10 7 -7
20 -13 29 -13 13 0 13 1 0 10 -17 11 -14 12 45 15 101 5 111 7 85 15 -41 13
-143 10 -178 -5z"/>
<path d="M4336 811 c-4 -5 0 -11 6 -14 10 -4 11 -7 1 -18 -7 -7 -13 -17 -13
-22 0 -15 21 5 30 29 7 17 15 22 27 18 15 -5 16 -4 3 5 -18 13 -47 14 -54 2z"/>
<path d="M4700 800 c0 -11 -5 -19 -11 -17 -6 1 -15 -8 -20 -20 -5 -15 -5 -23
2 -23 6 0 9 -9 6 -20 -3 -12 -1 -18 5 -14 5 3 8 15 5 25 -5 17 4 24 26 20 5
-1 6 3 2 9 -9 15 36 51 58 46 9 -2 15 0 11 5 -3 5 -23 9 -45 9 -32 0 -39 -3
-39 -20z"/>
<path d="M5467 814 c-4 -4 -7 -21 -6 -38 l0 -31 11 25 c6 14 10 29 9 34 -1 5
5 4 13 -4 9 -7 16 -9 16 -4 1 5 7 -2 14 -15 l13 -24 5 25 c3 14 0 25 -6 25 -6
0 -22 4 -36 7 -14 4 -29 4 -33 0z"/>
<path d="M5790 802 c-55 -27 -90 -53 -102 -76 l-11 -21 24 21 c24 21 55 22 43
2 -5 -7 -2 -8 5 -4 7 5 10 10 7 13 -3 3 10 14 29 24 39 21 121 36 180 33 l40
-2 -29 13 c-44 19 -145 18 -186 -3z m20 -6 c0 -3 -4 -8 -10 -11 -5 -3 -10 -1
-10 4 0 6 5 11 10 11 6 0 10 -2 10 -4z m-40 -30 c0 -2 -7 -7 -16 -10 -8 -3
-12 -2 -9 4 6 10 25 14 25 6z"/>
<path d="M6300 814 c-65 -24 -116 -58 -131 -87 -12 -22 -11 -22 9 -4 15 14 21
15 26 5 3 -7 4 -4 3 7 -2 16 3 19 23 17 19 -2 22 0 10 8 -13 8 -13 10 1 10 9
0 22 7 29 15 7 8 20 15 28 15 13 0 12 -3 -3 -14 -18 -13 -18 -14 8 -9 15 3 27
8 27 12 0 3 20 6 45 6 25 0 45 -3 45 -7 0 -5 5 -8 11 -8 5 0 7 5 3 11 -12 20
47 1 89 -28 26 -18 36 -31 32 -42 -5 -13 -4 -13 6 -4 16 16 0 36 -59 70 -34
20 -61 27 -116 29 -39 2 -78 1 -86 -2z"/>
<path d="M3650 790 c6 -11 13 -20 16 -20 2 0 0 9 -6 20 -6 11 -13 20 -16 20
-2 0 0 -9 6 -20z"/>
<path d="M5000 801 c0 -4 24 -6 53 -4 77 7 81 11 10 12 -35 1 -63 -3 -63 -8z"/>
<path d="M4754 784 c3 -9 6 -18 6 -20 0 -2 4 -4 9 -4 5 0 7 9 4 20 -3 11 -10
20 -15 20 -6 0 -7 -7 -4 -16z"/>
<path d="M3626 775 c4 -8 8 -15 10 -15 2 0 4 7 4 15 0 8 -4 15 -10 15 -5 0 -7
-7 -4 -15z"/>
<path d="M6007 776 c-4 -9 -1 -15 6 -13 7 1 11 -4 9 -12 -3 -12 0 -12 11 -2
12 9 16 9 20 -1 4 -8 6 -7 6 5 1 15 -5 19 -25 16 -4 0 -10 5 -14 11 -5 8 -9 7
-13 -4z"/>
<path d="M6446 754 c19 -15 19 -16 -1 -8 -37 13 -80 16 -115 6 -33 -9 -32 -9
25 -11 91 -2 115 -5 115 -15 0 -14 14 2 16 19 1 7 -4 11 -11 9 -7 -3 -16 -1
-20 5 -3 6 -11 11 -18 11 -6 0 -2 -7 9 -16z"/>
<path d="M4080 750 c36 -3 71 -10 78 -14 7 -4 12 -3 12 2 0 14 -38 22 -100 20
l-55 -1 65 -7z"/>
<path d="M5840 751 c-16 -5 2 -8 50 -8 46 0 67 3 55 8 -25 9 -72 9 -105 0z"/>
<path d="M5028 743 c17 -2 47 -2 65 0 17 2 3 4 -33 4 -36 0 -50 -2 -32 -4z"/>
<path d="M5278 743 c6 -2 18 -2 25 0 6 3 1 5 -13 5 -14 0 -19 -2 -12 -5z"/>
<path d="M5358 743 c7 -3 16 -2 19 1 4 3 -2 6 -13 5 -11 0 -14 -3 -6 -6z"/>
<path d="M5531 734 c0 -11 3 -14 6 -6 3 7 2 16 -1 19 -3 4 -6 -2 -5 -13z"/>
<path d="M4700 721 c0 -25 6 -27 13 -6 4 8 2 17 -3 20 -6 4 -10 -3 -10 -14z"/>
<path d="M5721 733 c-1 -6 -4 -20 -7 -30 -5 -17 -5 -17 6 0 6 10 9 23 6 30 -3
9 -5 9 -5 0z"/>
<path d="M5990 720 c0 -17 22 -22 36 -8 12 12 10 14 -11 16 -14 1 -25 -2 -25
-8z"/>
<path d="M4801 704 c0 -11 3 -14 6 -6 3 7 2 16 -1 19 -3 4 -6 -2 -5 -13z"/>
<path d="M5154 600 c0 -69 1 -97 3 -62 2 34 2 90 0 125 -2 34 -3 6 -3 -63z"/>
<path d="M6499 715 c-5 -20 -3 -33 9 -53 10 -15 13 -41 10 -82 -2 -34 -1 -57
4 -52 15 15 11 105 -5 144 -9 20 -13 39 -9 42 3 3 2 6 -1 6 -4 0 -8 -2 -8 -5z"/>
<path d="M3500 691 c0 -6 4 -13 10 -16 6 -3 7 1 4 9 -7 18 -14 21 -14 7z"/>
<path d="M3540 690 c0 -5 5 -10 11 -10 5 0 7 5 4 10 -3 6 -8 10 -11 10 -2 0
-4 -4 -4 -10z"/>
<path d="M4636 684 c-3 -8 -2 -13 3 -9 5 3 12 -1 14 -7 4 -8 6 -7 6 4 1 23
-15 32 -23 12z"/>
<path d="M6147 687 c-3 -8 1 -14 8 -14 7 0 11 6 8 14 -3 7 -6 13 -8 13 -2 0
-5 -6 -8 -13z"/>
<path d="M4703 675 c-3 -9 -3 -18 -1 -21 3 -3 8 4 11 16 6 23 -1 27 -10 5z"/>
<path d="M4844 676 c4 -12 2 -23 -6 -27 -8 -5 -5 -8 9 -6 18 1 20 4 11 22 -15
28 -23 34 -14 11z"/>
<path d="M5461 674 c0 -11 3 -14 6 -6 3 7 2 16 -1 19 -3 4 -6 -2 -5 -13z"/>
<path d="M6554 668 c-4 -7 -3 -8 4 -4 7 4 12 1 12 -8 0 -9 4 -16 9 -16 5 0 7
9 4 20 -6 22 -18 26 -29 8z"/>
<path d="M3980 650 c0 -8 60 -23 67 -17 1 2 -13 8 -32 14 -19 6 -35 8 -35 3z"/>
<path d="M6603 590 c0 -41 2 -58 4 -37 2 20 2 54 0 75 -2 20 -4 3 -4 -38z"/>
<path d="M5650 630 c0 -11 2 -20 4 -20 2 0 6 9 9 20 3 11 1 20 -4 20 -5 0 -9
-9 -9 -20z"/>
<path d="M6130 589 c0 -33 4 -58 9 -55 13 8 20 56 8 56 -5 0 -7 13 -3 30 3 17
1 30 -4 30 -6 0 -10 -27 -10 -61z"/>
<path d="M3534 626 c-6 -6 -8 -18 -6 -25 3 -8 0 -11 -7 -7 -13 8 -14 -3 -3
-21 5 -9 12 -1 21 23 14 38 12 49 -5 30z"/>
<path d="M4068 623 c7 -3 16 -2 19 1 4 3 -2 6 -13 5 -11 0 -14 -3 -6 -6z"/>
<path d="M3465 601 c4 -14 3 -21 -2 -18 -5 4 -10 0 -10 -7 0 -7 6 -13 13 -13
7 0 11 4 8 8 -2 4 1 9 8 11 9 3 7 10 -6 23 -18 19 -18 19 -11 -4z"/>
<path d="M4108 613 c7 -3 16 -2 19 1 4 3 -2 6 -13 5 -11 0 -14 -3 -6 -6z"/>
<path d="M4140 606 c0 -2 7 -7 16 -10 8 -3 12 -2 9 4 -6 10 -25 14 -25 6z"/>
<path d="M5232 580 c0 -14 2 -19 5 -12 2 6 2 18 0 25 -3 6 -5 1 -5 -13z"/>
<path d="M5650 563 c0 -26 10 -55 29 -86 32 -49 103 -103 121 -92 14 9 3 25
-13 19 -15 -5 -63 33 -59 48 1 5 -2 6 -8 3 -7 -4 -14 2 -17 14 -3 12 -9 21
-13 21 -15 0 -20 33 -8 49 12 14 11 15 -5 2 -16 -13 -17 -12 -12 17 3 17 1 34
-5 37 -6 4 -10 -9 -10 -32z"/>
<path d="M4201 573 c7 -12 15 -20 18 -17 3 2 -3 12 -13 22 -17 16 -18 16 -5
-5z"/>
<path d="M4592 578 c-10 -13 -28 -67 -20 -58 9 8 39 70 34 70 -2 0 -8 -6 -14
-12z"/>
<path d="M4808 573 c6 -2 9 -10 6 -15 -4 -7 -2 -8 5 -4 13 9 5 26 -12 25 -9 0
-8 -2 1 -6z"/>
<path d="M4100 540 c34 -11 60 -11 35 0 -11 5 -29 8 -40 8 -16 0 -15 -2 5 -8z"/>
<path d="M3538 533 c6 -2 10 -9 6 -14 -3 -5 0 -9 5 -9 6 0 11 5 11 11 0 8 4 8
13 1 7 -6 19 -7 26 -3 9 6 6 10 -11 14 -27 8 -69 8 -50 0z"/>
<path d="M3620 530 c0 -5 12 -10 26 -10 14 0 23 4 19 10 -3 6 -15 10 -26 10
-10 0 -19 -4 -19 -10z"/>
<path d="M4674 528 c-5 -8 -2 -9 9 -5 10 3 17 3 17 -1 0 -7 83 -9 105 -2 13 3
-62 19 -97 19 -15 1 -30 -4 -34 -11z"/>
<path d="M3412 498 c-10 -30 -10 -31 3 -14 13 17 21 46 12 46 -1 0 -8 -15 -15
-32z"/>
<path d="M4916 517 c3 -10 9 -15 12 -12 3 3 0 11 -7 18 -10 9 -11 8 -5 -6z"/>
<path d="M6140 514 c-1 -33 119 -149 136 -131 3 2 -11 14 -30 25 -20 12 -45
36 -56 54 -11 18 -20 29 -20 23 -1 -5 -7 1 -15 15 -8 14 -14 20 -15 14z"/>
<path d="M6585 499 c-4 -6 -5 -12 -2 -15 2 -3 7 2 10 11 7 17 1 20 -8 4z"/>
<path d="M3518 473 c6 -2 18 -2 25 0 6 3 1 5 -13 5 -14 0 -19 -2 -12 -5z"/>
<path d="M3588 473 c6 -2 18 -2 25 0 6 3 1 5 -13 5 -14 0 -19 -2 -12 -5z"/>
<path d="M3663 473 c9 -2 23 -2 30 0 6 3 -1 5 -18 5 -16 0 -22 -2 -12 -5z"/>
<path d="M4803 473 c9 -2 23 -2 30 0 6 3 -1 5 -18 5 -16 0 -22 -2 -12 -5z"/>
<path d="M3900 459 c0 -6 7 -9 15 -5 8 3 15 3 15 0 0 -2 -10 -9 -22 -14 -17
-6 -18 -9 -6 -9 9 -1 20 4 23 9 4 7 14 6 28 -1 21 -10 21 -9 -2 10 -25 23 -51
28 -51 10z"/>
<path d="M5232 450 c0 -14 2 -19 5 -12 2 6 2 18 0 25 -3 6 -5 1 -5 -13z"/>
<path d="M6430 449 c-42 -18 -43 -19 -10 -13 19 3 42 12 50 20 17 17 16 17
-40 -7z"/>
<path d="M6559 453 c-13 -16 -12 -17 4 -4 16 13 21 21 13 21 -2 0 -10 -8 -17
-17z"/>
<path d="M4129 443 c-13 -16 -12 -17 4 -4 16 13 21 21 13 21 -2 0 -10 -8 -17
-17z"/>
<path d="M5960 450 c-9 -6 -10 -10 -3 -10 6 0 15 5 18 10 8 12 4 12 -15 0z"/>
<path d="M6297 449 c7 -7 15 -10 18 -7 3 3 -2 9 -12 12 -14 6 -15 5 -6 -5z"/>
<path d="M3906 417 c-17 -12 -14 -15 26 -30 53 -21 63 -21 46 -3 -7 7 -19 11
-27 8 -10 -4 -12 -1 -6 8 6 10 4 12 -10 6 -15 -5 -16 -4 -5 9 15 18 0 20 -24
2z"/>
<path d="M4043 423 c9 -2 25 -2 35 0 9 3 1 5 -18 5 -19 0 -27 -2 -17 -5z"/>
<path d="M5150 415 c0 -8 4 -15 10 -15 5 0 7 7 4 15 -4 8 -8 15 -10 15 -2 0
-4 -7 -4 -15z"/>
<path d="M3741 413 c-2 -22 11 -43 27 -43 14 0 14 1 0 13 -9 6 -18 19 -21 27
-3 8 -6 10 -6 3z"/>
<path d="M5232 395 c0 -16 2 -22 5 -12 2 9 2 23 0 30 -3 6 -5 -1 -5 -18z"/>
<path d="M5460 387 c0 -10 8 -17 18 -17 9 0 13 4 7 8 -5 4 -13 11 -17 16 -5 5
-8 2 -8 -7z"/>
<path d="M5541 384 c0 -11 3 -14 6 -6 3 7 2 16 -1 19 -3 4 -6 -2 -5 -13z"/>
<path d="M3800 379 c0 -5 9 -9 20 -9 11 0 20 2 20 4 0 2 -9 6 -20 9 -11 3 -20
1 -20 -4z"/>
<path d="M4505 380 c-3 -5 1 -10 9 -10 9 0 16 5 16 10 0 6 -4 10 -9 10 -6 0
-13 -4 -16 -10z"/>
<path d="M3378 373 c12 -2 30 -2 40 0 9 3 -1 5 -23 4 -22 0 -30 -2 -17 -4z"/>
<path d="M4898 373 c7 -3 16 -2 19 1 4 3 -2 6 -13 5 -11 0 -14 -3 -6 -6z"/>
<path d="M5168 373 c12 -2 30 -2 40 0 9 3 -1 5 -23 4 -22 0 -30 -2 -17 -4z"/>
<path d="M5508 373 c7 -3 16 -2 19 1 4 3 -2 6 -13 5 -11 0 -14 -3 -6 -6z"/>
<path d="M4038 363 c7 -3 16 -2 19 1 4 3 -2 6 -13 5 -11 0 -14 -3 -6 -6z"/>
<path d="M6358 363 c7 -3 16 -2 19 1 4 3 -2 6 -13 5 -11 0 -14 -3 -6 -6z"/>
</g>
</svg>
